<mxfile host="app.diagrams.net" modified="2023-11-01T15:58:51.734Z" agent="Mozilla/5.0 (Windows NT 10.0; Win64; x64; rv:109.0) Gecko/20100101 Firefox/119.0" etag="1yw83OpxGGI3n43SN4ih" version="22.0.8" type="device">
  <diagram name="Page-1" id="e7e014a7-5840-1c2e-5031-d8a46d1fe8dd">
    <mxGraphModel dx="555" dy="909" grid="1" gridSize="10" guides="1" tooltips="1" connect="1" arrows="1" fold="1" page="1" pageScale="1" pageWidth="1169" pageHeight="826" background="none" math="0" shadow="0">
      <root>
        <mxCell id="0" />
        <mxCell id="1" parent="0" />
        <mxCell id="Sj0vP7IpzIft2VTFkvGf-41" value="" style="ellipse;whiteSpace=wrap;html=1;aspect=fixed;fillStyle=auto;fillColor=#000000;strokeColor=#FFFFFF;" vertex="1" parent="1">
          <mxGeometry x="160" y="46" width="40" height="40" as="geometry" />
        </mxCell>
        <mxCell id="Sj0vP7IpzIft2VTFkvGf-42" value="&lt;div&gt;Inserimento&lt;/div&gt;&lt;div&gt;dati nuovo utente&lt;/div&gt;" style="rounded=1;whiteSpace=wrap;html=1;" vertex="1" parent="1">
          <mxGeometry x="120" y="146" width="120" height="60" as="geometry" />
        </mxCell>
        <mxCell id="Sj0vP7IpzIft2VTFkvGf-43" value="" style="endArrow=classic;html=1;rounded=0;exitX=0.5;exitY=1;exitDx=0;exitDy=0;entryX=0.5;entryY=0;entryDx=0;entryDy=0;" edge="1" parent="1" source="Sj0vP7IpzIft2VTFkvGf-41" target="Sj0vP7IpzIft2VTFkvGf-42">
          <mxGeometry width="50" height="50" relative="1" as="geometry">
            <mxPoint x="50" y="106" as="sourcePoint" />
            <mxPoint x="100" y="56" as="targetPoint" />
          </mxGeometry>
        </mxCell>
        <mxCell id="Sj0vP7IpzIft2VTFkvGf-44" value="Salva dati sul server LDAP" style="rounded=1;whiteSpace=wrap;html=1;" vertex="1" parent="1">
          <mxGeometry x="120" y="266" width="120" height="60" as="geometry" />
        </mxCell>
        <mxCell id="Sj0vP7IpzIft2VTFkvGf-45" value="" style="endArrow=classic;html=1;rounded=0;exitX=0.5;exitY=1;exitDx=0;exitDy=0;entryX=0.5;entryY=0;entryDx=0;entryDy=0;" edge="1" parent="1" source="Sj0vP7IpzIft2VTFkvGf-42" target="Sj0vP7IpzIft2VTFkvGf-44">
          <mxGeometry width="50" height="50" relative="1" as="geometry">
            <mxPoint x="90" y="246" as="sourcePoint" />
            <mxPoint x="140" y="196" as="targetPoint" />
          </mxGeometry>
        </mxCell>
        <mxCell id="Sj0vP7IpzIft2VTFkvGf-46" value="" style="endArrow=classic;html=1;rounded=0;exitX=0.5;exitY=1;exitDx=0;exitDy=0;" edge="1" parent="1" source="Sj0vP7IpzIft2VTFkvGf-44">
          <mxGeometry width="50" height="50" relative="1" as="geometry">
            <mxPoint x="280" y="486" as="sourcePoint" />
            <mxPoint x="180" y="386" as="targetPoint" />
          </mxGeometry>
        </mxCell>
        <mxCell id="Sj0vP7IpzIft2VTFkvGf-47" value="Richiesta generazione chiavi SSH del nuovo utente" style="rounded=1;whiteSpace=wrap;html=1;" vertex="1" parent="1">
          <mxGeometry x="120" y="386" width="120" height="60" as="geometry" />
        </mxCell>
        <mxCell id="Sj0vP7IpzIft2VTFkvGf-48" value="" style="endArrow=classic;html=1;rounded=0;exitX=0.5;exitY=1;exitDx=0;exitDy=0;entryX=0.5;entryY=0;entryDx=0;entryDy=0;" edge="1" parent="1" source="Sj0vP7IpzIft2VTFkvGf-47" target="Sj0vP7IpzIft2VTFkvGf-49">
          <mxGeometry width="50" height="50" relative="1" as="geometry">
            <mxPoint x="160" y="586" as="sourcePoint" />
            <mxPoint x="180" y="546" as="targetPoint" />
          </mxGeometry>
        </mxCell>
        <mxCell id="Sj0vP7IpzIft2VTFkvGf-49" value="" style="rhombus;whiteSpace=wrap;html=1;" vertex="1" parent="1">
          <mxGeometry x="160" y="506" width="40" height="40" as="geometry" />
        </mxCell>
        <mxCell id="Sj0vP7IpzIft2VTFkvGf-50" value="" style="endArrow=classic;html=1;rounded=0;exitX=1;exitY=0.5;exitDx=0;exitDy=0;entryX=0.5;entryY=0;entryDx=0;entryDy=0;" edge="1" parent="1" source="Sj0vP7IpzIft2VTFkvGf-49" target="Sj0vP7IpzIft2VTFkvGf-53">
          <mxGeometry width="50" height="50" relative="1" as="geometry">
            <mxPoint x="340" y="566" as="sourcePoint" />
            <mxPoint x="360" y="526" as="targetPoint" />
            <Array as="points">
              <mxPoint x="340" y="526" />
            </Array>
          </mxGeometry>
        </mxCell>
        <mxCell id="Sj0vP7IpzIft2VTFkvGf-51" value="" style="endArrow=classic;html=1;rounded=0;exitX=0;exitY=0.5;exitDx=0;exitDy=0;entryX=0;entryY=0.5;entryDx=0;entryDy=0;" edge="1" parent="1" source="Sj0vP7IpzIft2VTFkvGf-49" target="Sj0vP7IpzIft2VTFkvGf-52">
          <mxGeometry width="50" height="50" relative="1" as="geometry">
            <mxPoint x="90" y="556" as="sourcePoint" />
            <mxPoint x="150" y="646" as="targetPoint" />
            <Array as="points">
              <mxPoint x="20" y="526" />
              <mxPoint x="20" y="706" />
            </Array>
          </mxGeometry>
        </mxCell>
        <mxCell id="Sj0vP7IpzIft2VTFkvGf-52" value="" style="rhombus;whiteSpace=wrap;html=1;" vertex="1" parent="1">
          <mxGeometry x="160" y="686" width="40" height="40" as="geometry" />
        </mxCell>
        <mxCell id="Sj0vP7IpzIft2VTFkvGf-53" value="Generazione chiavi SSH *" style="rounded=1;whiteSpace=wrap;html=1;" vertex="1" parent="1">
          <mxGeometry x="280" y="586" width="120" height="60" as="geometry" />
        </mxCell>
        <mxCell id="Sj0vP7IpzIft2VTFkvGf-54" value="" style="endArrow=classic;html=1;rounded=0;exitX=0.5;exitY=1;exitDx=0;exitDy=0;entryX=1;entryY=0.5;entryDx=0;entryDy=0;" edge="1" parent="1" source="Sj0vP7IpzIft2VTFkvGf-53" target="Sj0vP7IpzIft2VTFkvGf-52">
          <mxGeometry width="50" height="50" relative="1" as="geometry">
            <mxPoint x="340" y="766" as="sourcePoint" />
            <mxPoint x="360" y="706" as="targetPoint" />
            <Array as="points">
              <mxPoint x="340" y="706" />
            </Array>
          </mxGeometry>
        </mxCell>
        <mxCell id="Sj0vP7IpzIft2VTFkvGf-55" value="SÃ¬" style="text;html=1;strokeColor=none;fillColor=none;align=center;verticalAlign=middle;whiteSpace=wrap;rounded=0;" vertex="1" parent="1">
          <mxGeometry x="200" y="496" width="60" height="30" as="geometry" />
        </mxCell>
        <mxCell id="Sj0vP7IpzIft2VTFkvGf-56" value="No" style="text;html=1;strokeColor=none;fillColor=none;align=center;verticalAlign=middle;whiteSpace=wrap;rounded=0;" vertex="1" parent="1">
          <mxGeometry x="100" y="496" width="60" height="30" as="geometry" />
        </mxCell>
        <mxCell id="Sj0vP7IpzIft2VTFkvGf-57" value="" style="endArrow=classic;html=1;rounded=0;exitX=0.5;exitY=1;exitDx=0;exitDy=0;" edge="1" parent="1" source="Sj0vP7IpzIft2VTFkvGf-52">
          <mxGeometry width="50" height="50" relative="1" as="geometry">
            <mxPoint x="-30" y="706" as="sourcePoint" />
            <mxPoint x="180" y="770" as="targetPoint" />
          </mxGeometry>
        </mxCell>
        <mxCell id="Sj0vP7IpzIft2VTFkvGf-59" value="" style="ellipse;whiteSpace=wrap;html=1;aspect=fixed;" vertex="1" parent="1">
          <mxGeometry x="160" y="770" width="40" height="40" as="geometry" />
        </mxCell>
        <mxCell id="Sj0vP7IpzIft2VTFkvGf-60" value="" style="ellipse;whiteSpace=wrap;html=1;aspect=fixed;fillColor=#000000;" vertex="1" parent="1">
          <mxGeometry x="170" y="780" width="20" height="20" as="geometry" />
        </mxCell>
        <mxCell id="Sj0vP7IpzIft2VTFkvGf-62" value="" style="ellipse;whiteSpace=wrap;html=1;aspect=fixed;fillStyle=auto;fillColor=#000000;strokeColor=#FFFFFF;" vertex="1" parent="1">
          <mxGeometry x="680" y="46" width="40" height="40" as="geometry" />
        </mxCell>
        <mxCell id="Sj0vP7IpzIft2VTFkvGf-63" value="Modifica chiave pubblica SSH" style="rounded=1;whiteSpace=wrap;html=1;" vertex="1" parent="1">
          <mxGeometry x="640" y="146" width="120" height="60" as="geometry" />
        </mxCell>
        <mxCell id="Sj0vP7IpzIft2VTFkvGf-64" value="" style="endArrow=classic;html=1;rounded=0;exitX=0.5;exitY=1;exitDx=0;exitDy=0;entryX=0.5;entryY=0;entryDx=0;entryDy=0;" edge="1" parent="1" source="Sj0vP7IpzIft2VTFkvGf-62" target="Sj0vP7IpzIft2VTFkvGf-63">
          <mxGeometry width="50" height="50" relative="1" as="geometry">
            <mxPoint x="410" y="226" as="sourcePoint" />
            <mxPoint x="460" y="176" as="targetPoint" />
          </mxGeometry>
        </mxCell>
        <mxCell id="Sj0vP7IpzIft2VTFkvGf-66" value="" style="line;strokeWidth=4;html=1;perimeter=backbonePerimeter;points=[];outlineConnect=0;" vertex="1" parent="1">
          <mxGeometry x="560" y="256" width="280" height="10" as="geometry" />
        </mxCell>
        <mxCell id="Sj0vP7IpzIft2VTFkvGf-67" value="" style="endArrow=classic;html=1;rounded=0;exitX=0.5;exitY=1;exitDx=0;exitDy=0;" edge="1" parent="1" source="Sj0vP7IpzIft2VTFkvGf-63" target="Sj0vP7IpzIft2VTFkvGf-66">
          <mxGeometry width="50" height="50" relative="1" as="geometry">
            <mxPoint x="440" y="286" as="sourcePoint" />
            <mxPoint x="490" y="236" as="targetPoint" />
          </mxGeometry>
        </mxCell>
        <mxCell id="Sj0vP7IpzIft2VTFkvGf-68" value="Salva le chiave pubblica su LDAP" style="rounded=1;whiteSpace=wrap;html=1;" vertex="1" parent="1">
          <mxGeometry x="560" y="386" width="120" height="60" as="geometry" />
        </mxCell>
        <mxCell id="Sj0vP7IpzIft2VTFkvGf-70" value="" style="endArrow=classic;html=1;rounded=0;entryX=0.5;entryY=0;entryDx=0;entryDy=0;" edge="1" parent="1" source="Sj0vP7IpzIft2VTFkvGf-66" target="Sj0vP7IpzIft2VTFkvGf-68">
          <mxGeometry width="50" height="50" relative="1" as="geometry">
            <mxPoint x="460" y="276" as="sourcePoint" />
            <mxPoint x="510" y="436" as="targetPoint" />
          </mxGeometry>
        </mxCell>
        <mxCell id="Sj0vP7IpzIft2VTFkvGf-71" value="" style="endArrow=classic;html=1;rounded=0;entryX=0.5;entryY=0;entryDx=0;entryDy=0;" edge="1" parent="1" source="Sj0vP7IpzIft2VTFkvGf-66">
          <mxGeometry width="50" height="50" relative="1" as="geometry">
            <mxPoint x="620" y="496" as="sourcePoint" />
            <mxPoint x="780" y="306" as="targetPoint" />
          </mxGeometry>
        </mxCell>
        <mxCell id="Sj0vP7IpzIft2VTFkvGf-72" value="" style="endArrow=classic;html=1;rounded=0;exitX=0.5;exitY=1;exitDx=0;exitDy=0;" edge="1" parent="1" source="Sj0vP7IpzIft2VTFkvGf-68" target="Sj0vP7IpzIft2VTFkvGf-73">
          <mxGeometry width="50" height="50" relative="1" as="geometry">
            <mxPoint x="650" y="486" as="sourcePoint" />
            <mxPoint x="700" y="436" as="targetPoint" />
          </mxGeometry>
        </mxCell>
        <mxCell id="Sj0vP7IpzIft2VTFkvGf-73" value="" style="line;strokeWidth=4;html=1;perimeter=backbonePerimeter;points=[];outlineConnect=0;" vertex="1" parent="1">
          <mxGeometry x="560" y="616" width="280" height="10" as="geometry" />
        </mxCell>
        <mxCell id="Sj0vP7IpzIft2VTFkvGf-87" value="Aspetta 1 minuto" style="text;html=1;strokeColor=none;fillColor=none;align=center;verticalAlign=middle;whiteSpace=wrap;rounded=0;" vertex="1" parent="1">
          <mxGeometry x="1010" y="401" width="60" height="30" as="geometry" />
        </mxCell>
        <mxCell id="Sj0vP7IpzIft2VTFkvGf-94" value="Invia la chiave privata all&#39;utente" style="rounded=1;whiteSpace=wrap;html=1;" vertex="1" parent="1">
          <mxGeometry x="720" y="386" width="120" height="60" as="geometry" />
        </mxCell>
        <mxCell id="Sj0vP7IpzIft2VTFkvGf-95" value="" style="endArrow=classic;html=1;rounded=0;exitX=0.5;exitY=1;exitDx=0;exitDy=0;" edge="1" parent="1" source="Sj0vP7IpzIft2VTFkvGf-94">
          <mxGeometry width="50" height="50" relative="1" as="geometry">
            <mxPoint x="630" y="456" as="sourcePoint" />
            <mxPoint x="780" y="506" as="targetPoint" />
          </mxGeometry>
        </mxCell>
        <mxCell id="Sj0vP7IpzIft2VTFkvGf-96" value="" style="rhombus;whiteSpace=wrap;html=1;" vertex="1" parent="1">
          <mxGeometry x="760" y="506" width="40" height="40" as="geometry" />
        </mxCell>
        <mxCell id="Sj0vP7IpzIft2VTFkvGf-98" value="" style="endArrow=classic;html=1;rounded=0;exitX=0.5;exitY=1;exitDx=0;exitDy=0;" edge="1" parent="1" source="Sj0vP7IpzIft2VTFkvGf-96" target="Sj0vP7IpzIft2VTFkvGf-73">
          <mxGeometry width="50" height="50" relative="1" as="geometry">
            <mxPoint x="700" y="676" as="sourcePoint" />
            <mxPoint x="780" y="666" as="targetPoint" />
          </mxGeometry>
        </mxCell>
        <mxCell id="Sj0vP7IpzIft2VTFkvGf-99" value="&lt;div&gt;L&#39;utente conferma&lt;br&gt;&lt;/div&gt;" style="text;html=1;strokeColor=none;fillColor=none;align=center;verticalAlign=middle;whiteSpace=wrap;rounded=0;" vertex="1" parent="1">
          <mxGeometry x="780" y="546" width="60" height="30" as="geometry" />
        </mxCell>
        <mxCell id="Sj0vP7IpzIft2VTFkvGf-100" value="L&#39;utente non conferma" style="text;html=1;strokeColor=none;fillColor=none;align=center;verticalAlign=middle;whiteSpace=wrap;rounded=0;" vertex="1" parent="1">
          <mxGeometry x="800" y="496" width="70" height="30" as="geometry" />
        </mxCell>
        <mxCell id="Sj0vP7IpzIft2VTFkvGf-101" value="" style="rhombus;whiteSpace=wrap;html=1;" vertex="1" parent="1">
          <mxGeometry x="760" y="306" width="40" height="40" as="geometry" />
        </mxCell>
        <mxCell id="Sj0vP7IpzIft2VTFkvGf-102" value="" style="endArrow=classic;html=1;rounded=0;exitX=0.5;exitY=1;exitDx=0;exitDy=0;" edge="1" parent="1" source="Sj0vP7IpzIft2VTFkvGf-101">
          <mxGeometry width="50" height="50" relative="1" as="geometry">
            <mxPoint x="920" y="366" as="sourcePoint" />
            <mxPoint x="780" y="386" as="targetPoint" />
          </mxGeometry>
        </mxCell>
        <mxCell id="Sj0vP7IpzIft2VTFkvGf-103" value="" style="endArrow=classic;html=1;rounded=0;entryX=1;entryY=0.5;entryDx=0;entryDy=0;exitX=0.5;exitY=0.5;exitDx=0;exitDy=0;exitPerimeter=0;" edge="1" parent="1" source="Sj0vP7IpzIft2VTFkvGf-105" target="Sj0vP7IpzIft2VTFkvGf-101">
          <mxGeometry width="50" height="50" relative="1" as="geometry">
            <mxPoint x="1060" y="326" as="sourcePoint" />
            <mxPoint x="1080" y="326" as="targetPoint" />
            <Array as="points">
              <mxPoint x="980" y="326" />
            </Array>
          </mxGeometry>
        </mxCell>
        <mxCell id="Sj0vP7IpzIft2VTFkvGf-105" value="" style="shape=collate;whiteSpace=wrap;html=1;rotation=90;direction=west;" vertex="1" parent="1">
          <mxGeometry x="960" y="396" width="40" height="40" as="geometry" />
        </mxCell>
        <mxCell id="Sj0vP7IpzIft2VTFkvGf-131" value="" style="endArrow=classic;html=1;rounded=0;exitX=1;exitY=0.5;exitDx=0;exitDy=0;entryX=0.518;entryY=0.509;entryDx=0;entryDy=0;entryPerimeter=0;" edge="1" parent="1" source="Sj0vP7IpzIft2VTFkvGf-96" target="Sj0vP7IpzIft2VTFkvGf-105">
          <mxGeometry width="50" height="50" relative="1" as="geometry">
            <mxPoint x="1020" y="566" as="sourcePoint" />
            <mxPoint x="1060" y="416" as="targetPoint" />
            <Array as="points">
              <mxPoint x="980" y="526" />
            </Array>
          </mxGeometry>
        </mxCell>
        <mxCell id="Sj0vP7IpzIft2VTFkvGf-132" value="" style="endArrow=classic;html=1;rounded=0;entryX=0.5;entryY=0;entryDx=0;entryDy=0;" edge="1" parent="1" source="Sj0vP7IpzIft2VTFkvGf-73" target="Sj0vP7IpzIft2VTFkvGf-134">
          <mxGeometry width="50" height="50" relative="1" as="geometry">
            <mxPoint x="660" y="676" as="sourcePoint" />
            <mxPoint x="520" y="516" as="targetPoint" />
          </mxGeometry>
        </mxCell>
        <mxCell id="Sj0vP7IpzIft2VTFkvGf-134" value="" style="ellipse;whiteSpace=wrap;html=1;aspect=fixed;" vertex="1" parent="1">
          <mxGeometry x="680" y="706" width="40" height="40" as="geometry" />
        </mxCell>
        <mxCell id="Sj0vP7IpzIft2VTFkvGf-135" value="" style="ellipse;whiteSpace=wrap;html=1;aspect=fixed;fillColor=#000000;" vertex="1" parent="1">
          <mxGeometry x="690" y="716" width="20" height="20" as="geometry" />
        </mxCell>
        <mxCell id="Sj0vP7IpzIft2VTFkvGf-136" value="Activity Diagram: Crea utente" style="text;html=1;strokeColor=none;fillColor=none;align=center;verticalAlign=middle;whiteSpace=wrap;rounded=0;" vertex="1" parent="1">
          <mxGeometry x="100" y="16" width="160" height="30" as="geometry" />
        </mxCell>
        <mxCell id="Sj0vP7IpzIft2VTFkvGf-137" value="Generazione delle chiavi ssh" style="text;html=1;strokeColor=none;fillColor=none;align=center;verticalAlign=middle;whiteSpace=wrap;rounded=0;" vertex="1" parent="1">
          <mxGeometry x="615" y="6" width="170" height="30" as="geometry" />
        </mxCell>
      </root>
    </mxGraphModel>
  </diagram>
</mxfile>
